<?xml version="1.0" encoding="UTF-8" standalone="no"?>
<svg
   inkscape:version="1.1.2 (0a00cf5339, 2022-02-04)"
   sodipodi:docname="PictoSearch.svg"
   id="svg12"
   xml:space="preserve"
   viewBox="0 0 495.19013 77.673927"
   y="0px"
   x="0px"
   version="1.1"
   fill="#00a3d3"
   width="495.19012"
   height="77.673927"
   xmlns:inkscape="http://www.inkscape.org/namespaces/inkscape"
   xmlns:sodipodi="http://sodipodi.sourceforge.net/DTD/sodipodi-0.dtd"
   xmlns="http://www.w3.org/2000/svg"
   xmlns:svg="http://www.w3.org/2000/svg"
   xmlns:rdf="http://www.w3.org/1999/02/22-rdf-syntax-ns#"
   xmlns:cc="http://creativecommons.org/ns#"
   xmlns:dc="http://purl.org/dc/elements/1.1/"><g
     aria-label="Mindmapper"
     id="text13352"
     style="font-size:71.1261px;line-height:1.25;letter-spacing:0px;word-spacing:0px;fill:#000000;stroke-width:3.81032"
     transform="translate(-6.1084311,-5.8060202)" /><sodipodi:namedview
     inkscape:document-rotation="0"
     pagecolor="#ffffff"
     bordercolor="#666666"
     borderopacity="1"
     objecttolerance="10"
     gridtolerance="10"
     guidetolerance="10"
     inkscape:pageopacity="0"
     inkscape:pageshadow="2"
     inkscape:window-width="1920"
     inkscape:window-height="1013"
     id="namedview10"
     showgrid="false"
     inkscape:zoom="1.57"
     inkscape:cx="200.31847"
     inkscape:cy="4.1401274"
     inkscape:window-x="0"
     inkscape:window-y="0"
     inkscape:window-maximized="1"
     inkscape:current-layer="text21754"
     inkscape:pagecheckerboard="0" /><metadata
     id="metadata18"><rdf:RDF><cc:Work
         rdf:about=""><dc:format>image/svg+xml</dc:format><dc:type
           rdf:resource="http://purl.org/dc/dcmitype/StillImage" /></cc:Work></rdf:RDF></metadata><defs
     id="defs16"><rect
       x="98.075485"
       y="-128.74561"
       width="357.67181"
       height="63.396168"
       id="rect21756" /><rect
       x="48.933479"
       y="-147.54729"
       width="428.06354"
       height="72.858696"
       id="rect16910" /><rect
       x="82.83165"
       y="-116.96103"
       width="401.66907"
       height="81.458549"
       id="rect1940" /><rect
       x="101.00043"
       y="16.561638"
       width="350.64413"
       height="71.003944"
       id="rect9408" /><rect
       x="105.61219"
       y="9.0322132"
       width="208.49744"
       height="85.73774"
       id="rect837" /></defs><text
     xml:space="preserve"
     id="text835"
     style="font-style:normal;font-weight:normal;font-size:40px;line-height:1.25;font-family:sans-serif;letter-spacing:0px;word-spacing:0px;white-space:pre;shape-inside:url(#rect837);fill:#000000;fill-opacity:1;stroke:none"
     transform="translate(-6.9294042,-15.778478)" /><g
     id="g31597"
     transform="translate(-6.1084311,-5.8060202)"><g
       aria-label="Mappermind"
       transform="matrix(4.0474036,0,0,4.0474036,-282.1549,713.64958)"
       id="text21754"
       style="font-size:18.6667px;line-height:1.25;letter-spacing:0px;word-spacing:0px;white-space:pre;shape-inside:url(#rect21756)"><g
         aria-label="PictoSearch"
         id="text3884"
         style="font-size:19.5748px;font-family:'Fira Sans';-inkscape-font-specification:'Fira Sans';fill:#000000;stroke-width:1.04865"><path
           d="m 96.850296,-172.6227 q 2.505575,0 3.875814,1.05704 1.37023,1.03746 1.37023,3.11239 0,2.21195 -1.42896,3.28857 -1.428958,1.07661 -3.797509,1.07661 h -1.703008 v 4.95242 h -1.859606 v -13.48703 z m -0.05872,7.0665 q 1.624708,0 2.466425,-0.62639 0.861293,-0.6264 0.861293,-2.25111 0,-1.44853 -0.861293,-2.0945 -0.841717,-0.64597 -2.427276,-0.64597 h -1.663858 v 5.61797 z"
           id="path4191" /><path
           d="m 105.40447,-174.40401 q 0.56767,0 0.92002,0.35235 0.35234,0.35234 0.35234,0.88086 0,0.52852 -0.35234,0.88087 -0.35235,0.33277 -0.92002,0.33277 -0.54809,0 -0.90044,-0.33277 -0.35235,-0.35235 -0.35235,-0.88087 0,-0.52852 0.35235,-0.88086 0.35235,-0.35235 0.90044,-0.35235 z m 0.92002,15.26834 h -1.80088 v -10.31592 h 1.80088 z"
           id="path4193" /><path
           d="m 113.74332,-169.68648 q 0.92001,0 1.68343,0.27404 0.76342,0.25448 1.46811,0.84172 l -0.86129,1.13534 q -0.54809,-0.3915 -1.07661,-0.56767 -0.50895,-0.19575 -1.13534,-0.19575 -1.25279,0 -1.95748,0.99832 -0.68512,0.99831 -0.68512,2.95579 0,1.95748 0.68512,2.89707 0.68512,0.92002 1.95748,0.92002 0.60682,0 1.11576,-0.17618 0.50895,-0.19574 1.13534,-0.60681 l 0.82214,1.17448 q -1.40938,1.13534 -3.15154,1.13534 -2.0945,0 -3.30814,-1.40938 -1.19407,-1.40939 -1.19407,-3.89539 0,-1.64428 0.5481,-2.87749 0.54809,-1.23322 1.54641,-1.91834 1.01789,-0.68511 2.4077,-0.68511 z"
           id="path4195" /><path
           d="m 124.54862,-159.60546 q -1.01789,0.70469 -2.30982,0.70469 -1.31152,0 -2.05536,-0.74384 -0.72427,-0.76342 -0.72427,-2.19238 v -6.22478 h -1.80088 v -1.38982 h 1.80088 v -2.3294 l 1.80089,-0.21532 v 2.54472 h 2.44685 l -0.19575,1.38982 h -2.2511 v 6.14648 q 0,0.80257 0.27404,1.17449 0.29362,0.35235 0.95917,0.35235 0.60682,0 1.37023,-0.41107 z"
           id="path4197" /><path
           d="m 129.99043,-169.68648 q 2.1728,0 3.36686,1.44853 1.21364,1.44854 1.21364,3.93454 0,1.60513 -0.54809,2.83834 -0.5481,1.21364 -1.58556,1.89876 -1.03747,0.66554 -2.46643,0.66554 -2.1728,0 -3.38644,-1.44853 -1.21363,-1.44854 -1.21363,-3.93454 0,-1.60513 0.54809,-2.81877 0.54809,-1.23321 1.58556,-1.89876 1.03746,-0.68511 2.486,-0.68511 z m 0,1.44853 q -2.68175,0 -2.68175,3.95411 0,3.93454 2.66217,3.93454 2.66218,0 2.66218,-3.95411 0,-3.93454 -2.6426,-3.93454 z"
           id="path4199" /><path
           d="m 140.97188,-172.8576 q 1.35066,0 2.30983,0.39149 0.95917,0.37193 1.85961,1.17449 l -1.01789,1.13534 q -0.76342,-0.60682 -1.50726,-0.88086 -0.72427,-0.29363 -1.56599,-0.29363 -1.05704,0 -1.74215,0.48937 -0.68512,0.48937 -0.68512,1.42896 0,0.58725 0.2349,0.99832 0.23489,0.39149 0.86129,0.72427 0.64596,0.33277 1.8596,0.70469 1.27236,0.3915 2.11408,0.84172 0.84172,0.45022 1.35066,1.25278 0.52852,0.78299 0.52852,1.99663 0,1.17449 -0.58724,2.07493 -0.56767,0.90044 -1.66386,1.40939 -1.07661,0.50894 -2.5643,0.50894 -2.7992,0 -4.5805,-1.74216 l 1.01789,-1.13533 q 0.82214,0.66554 1.66386,1.01789 0.84171,0.33277 1.87918,0.33277 1.25278,0 2.07492,-0.60682 0.82215,-0.6264 0.82215,-1.80088 0,-0.66555 -0.25448,-1.09619 -0.25447,-0.45022 -0.88086,-0.80257 -0.60682,-0.35235 -1.78131,-0.70469 -2.07493,-0.6264 -3.03409,-1.50726 -0.95917,-0.88087 -0.95917,-2.38813 0,-1.01789 0.52852,-1.82045 0.5481,-0.80257 1.50726,-1.25279 0.97874,-0.45022 2.21195,-0.45022 z"
           id="path4201" /><path
           d="m 156.00533,-164.59704 q 0,0.45023 -0.0391,0.92002 h -6.57713 q 0.11745,1.70301 0.86129,2.50557 0.74385,0.80257 1.91833,0.80257 0.74385,0 1.37024,-0.21532 0.62639,-0.21532 1.31151,-0.68512 l 0.78299,1.07661 q -1.64428,1.29194 -3.60176,1.29194 -2.15323,0 -3.36687,-1.40938 -1.19406,-1.40939 -1.19406,-3.87581 0,-1.60514 0.50895,-2.83835 0.52852,-1.25279 1.48768,-1.95748 0.97874,-0.70469 2.29025,-0.70469 2.05536,0 3.15155,1.35066 1.09618,1.35066 1.09618,3.73878 z m -1.7813,-0.52851 q 0,-1.52684 -0.60682,-2.32941 -0.60682,-0.80256 -1.82046,-0.80256 -2.21195,0 -2.4077,3.24941 h 4.83498 z"
           id="path4203" /><path
           d="m 165.61659,-161.54337 q 0,0.6264 0.21532,0.93959 0.21532,0.29363 0.64597,0.45022 l -0.41107,1.25279 q -0.80257,-0.0979 -1.29194,-0.45022 -0.48937,-0.35235 -0.72427,-1.09619 -1.03746,1.54641 -3.07324,1.54641 -1.52684,0 -2.4077,-0.86129 -0.88087,-0.86129 -0.88087,-2.2511 0,-1.64428 1.17449,-2.52515 1.19406,-0.88087 3.36687,-0.88087 h 1.58555 v -0.76341 q 0,-1.09619 -0.52852,-1.56599 -0.52851,-0.46979 -1.6247,-0.46979 -1.13534,0 -2.77963,0.54809 l -0.45022,-1.31151 q 1.91833,-0.70469 3.56262,-0.70469 1.82045,0 2.7209,0.90044 0.90044,0.88086 0.90044,2.52515 z m -4.22816,1.29194 q 1.54641,0 2.42727,-1.60513 v -2.36855 h -1.35066 q -2.85792,0 -2.85792,2.11407 0,0.92002 0.45022,1.38982 0.45022,0.46979 1.33109,0.46979 z"
           id="path4205" /><path
           d="m 173.74012,-169.68648 q 0.5481,0 1.01789,0.11745 l -0.33277,1.76173 q -0.46979,-0.11745 -0.90044,-0.11745 -0.95917,0 -1.54641,0.70469 -0.58724,0.70469 -0.92002,2.19238 v 5.89201 h -1.80088 v -10.31592 h 1.54641 l 0.17618,2.09451 q 0.41107,-1.15492 1.11576,-1.74216 0.70469,-0.58724 1.64428,-0.58724 z"
           id="path4207" /><path
           d="m 180.18021,-169.68648 q 0.92001,0 1.68343,0.27404 0.76342,0.25448 1.46811,0.84172 l -0.86129,1.13534 q -0.54809,-0.3915 -1.07661,-0.56767 -0.50895,-0.19575 -1.13534,-0.19575 -1.25279,0 -1.95748,0.99832 -0.68512,0.99831 -0.68512,2.95579 0,1.95748 0.68512,2.89707 0.68512,0.92002 1.95748,0.92002 0.60682,0 1.11576,-0.17618 0.50895,-0.19574 1.13534,-0.60681 l 0.82214,1.17448 q -1.40938,1.13534 -3.15154,1.13534 -2.09451,0 -3.30814,-1.40938 -1.19407,-1.40939 -1.19407,-3.89539 0,-1.64428 0.5481,-2.87749 0.54809,-1.23322 1.54641,-1.91834 1.01789,-0.68511 2.4077,-0.68511 z"
           id="path4209" /><path
           d="m 190.57445,-169.68648 q 1.40938,0 2.19237,0.84171 0.80257,0.84172 0.80257,2.30983 v 7.39927 h -1.80088 v -7.1448 q 0,-1.09619 -0.43065,-1.54641 -0.41107,-0.45022 -1.21363,-0.45022 -0.80257,0 -1.42896,0.4698 -0.6264,0.46979 -1.17449,1.33108 v 7.34055 h -1.80088 v -14.4462 l 1.80088,-0.19575 v 5.75499 q 1.21363,-1.66385 3.05367,-1.66385 z"
           id="path4211" /></g></g><text
       xml:space="preserve"
       id="text1938"
       style="font-style:normal;font-variant:normal;font-weight:normal;font-stretch:normal;font-size:18.6667px;line-height:1.25;font-family:'Fira Sans';-inkscape-font-specification:'Fira Sans';letter-spacing:0px;word-spacing:0px;white-space:pre;shape-inside:url(#rect1940)" /><text
       xml:space="preserve"
       style="font-style:normal;font-variant:normal;font-weight:normal;font-stretch:normal;font-size:18.6667px;line-height:1.25;font-family:'Fira Sans';-inkscape-font-specification:'Fira Sans';letter-spacing:0px;word-spacing:0px;fill:#000000"
       x="118.44115"
       y="-96.540749"
       id="text4696"><tspan
         sodipodi:role="line"
         id="tspan4694"
         x="118.44115"
         y="-96.540749" /></text><text
       xml:space="preserve"
       id="text16908"
       style="font-size:18.6667px;line-height:1.25;font-family:sans-serif;letter-spacing:0px;word-spacing:0px;white-space:pre;shape-inside:url(#rect16910)" /><g
       fill="#00a3d2"
       id="g4180"
       transform="matrix(0.06488923,0,0,0.06488923,6.1086258,5.8056309)"><path
         d="m 137.5,1000 h 300 c -61.508,-76.891 -92.492,-173.77 -87.023,-272.08 5.4727,-98.312 47.012,-191.15 116.67,-260.75 69.656,-69.594 162.54,-111.05 260.85,-116.43 98.316,-5.3789 195.17,25.691 272,87.266 v -300 C 1000.1298,101.451 985.7,66.35 959.903,40.455 934.102,14.56 899.051,0.006 862.497,0.006 h -725 c -36.469,0 -71.441,14.488 -97.227,40.273 -25.785,25.785 -40.273,60.758 -40.273,97.227 v 725 c 0,36.469 14.488,71.441 40.273,97.227 25.785,25.785 60.758,40.273 97.227,40.273 z"
         id="path4176" /><path
         d="m 994.5,923.5 c 43.621,-61.301 62.613,-136.75 53.219,-211.4 -9.3945,-74.645 -46.496,-143.04 -103.95,-191.61 -57.449,-48.578 -131.05,-73.801 -206.22,-70.66 -75.172,3.1406 -146.42,34.406 -199.62,87.605 -53.199,53.199 -84.465,124.45 -87.605,199.62 -3.1406,75.168 22.082,148.77 70.66,206.22 48.578,57.449 116.97,94.551 191.61,103.95 74.648,9.3945 150.1,-9.5977 211.4,-53.219 l 191,191 c 12.871,11.023 30.453,14.777 46.703,9.9688 16.25,-4.8047 28.961,-17.516 33.766,-33.766 4.8086,-16.25 1.0547,-33.832 -9.9688,-46.703 z"
         id="path4178" /></g></g><text
     xml:space="preserve"
     id="text9406"
     style="font-size:18.6667px;line-height:1.25;font-family:sans-serif;letter-spacing:0px;word-spacing:0px;white-space:pre;shape-inside:url(#rect9408)"
     transform="translate(-6.1084311,-5.8060202)" /></svg>
