<?xml version="1.0" encoding="UTF-8"?>
<svg width="1200pt" height="1200pt" version="1.1" viewBox="0 0 1200 1200" xmlns="http://www.w3.org/2000/svg">
 <g fill="#00a3d2">
  <path d="m137.5 1e3h300c-61.508-76.891-92.492-173.77-87.023-272.08 5.4727-98.312 47.012-191.15 116.67-260.75 69.656-69.594 162.54-111.05 260.85-116.43 98.316-5.3789 195.17 25.691 272 87.266v-300c0.13281-36.555-14.297-71.656-40.094-97.551-25.801-25.895-60.852-40.449-97.406-40.449h-725c-36.469 0-71.441 14.488-97.227 40.273-25.785 25.785-40.273 60.758-40.273 97.227v725c0 36.469 14.488 71.441 40.273 97.227 25.785 25.785 60.758 40.273 97.227 40.273z"/>
  <path d="m994.5 923.5c43.621-61.301 62.613-136.75 53.219-211.4-9.3945-74.645-46.496-143.04-103.95-191.61-57.449-48.578-131.05-73.801-206.22-70.66-75.172 3.1406-146.42 34.406-199.62 87.605-53.199 53.199-84.465 124.45-87.605 199.62-3.1406 75.168 22.082 148.77 70.66 206.22 48.578 57.449 116.97 94.551 191.61 103.95 74.648 9.3945 150.1-9.5977 211.4-53.219l191 191c12.871 11.023 30.453 14.777 46.703 9.9688 16.25-4.8047 28.961-17.516 33.766-33.766 4.8086-16.25 1.0547-33.832-9.9688-46.703z"/>
 </g>
</svg>
