<?xml version="1.0" encoding="UTF-8" standalone="no"?>
<!DOCTYPE svg PUBLIC "-//W3C//DTD SVG 1.1//EN" "http://www.w3.org/Graphics/SVG/1.1/DTD/svg11.dtd">
<svg width="100%" height="100%" viewBox="0 0 272 272" version="1.1" xmlns="http://www.w3.org/2000/svg" xmlns:xlink="http://www.w3.org/1999/xlink" xml:space="preserve" xmlns:serif="http://www.serif.com/" style="fill-rule:evenodd;clip-rule:evenodd;stroke-linejoin:round;stroke-miterlimit:2;">
    <g transform="matrix(0.938774,0,0,0.938774,8.36004,7.58448)">
        <g id="g6">
            <path id="path2" d="M31.163,226.663L99.163,226.663C80.411,203.225 74.482,172.018 83.322,143.32C92.173,114.632 114.645,92.181 143.341,83.363C172.04,74.544 203.236,80.504 226.663,99.28L226.663,31.28C226.696,22.992 223.421,15.033 217.578,9.169C211.736,3.305 203.788,0 195.5,0L31.163,0C13.951,0 0,13.951 0,31.163L0,195.5C0,212.712 13.951,226.663 31.163,226.663Z" style="fill:white;fill-opacity:0.63;fill-rule:nonzero;"/>
            <path id="path4" d="M225.42,209.323C238.724,190.634 241.696,166.483 233.335,145.117C224.974,123.749 206.391,108.036 183.929,103.341C161.467,98.644 138.157,105.593 121.932,121.818C105.707,138.043 98.76,161.364 103.455,183.826C108.153,206.288 123.855,224.86 145.232,233.221C166.6,241.593 190.737,238.607 209.437,225.306L252.734,268.603C257.23,272.449 263.932,272.193 268.119,268.007C272.307,263.821 272.56,257.116 268.714,252.623L225.42,209.323Z" style="fill:white;fill-opacity:0.63;fill-rule:nonzero;"/>
        </g>
    </g>
</svg>
